<?xml version="1.0" encoding="UTF-8" standalone="no"?>
<!DOCTYPE svg PUBLIC "-//W3C//DTD SVG 1.1//EN" "http://www.w3.org/Graphics/SVG/1.1/DTD/svg11.dtd">
<svg width="100%" height="100%" viewBox="0 0 150 150" version="1.1" xmlns="http://www.w3.org/2000/svg" xmlns:xlink="http://www.w3.org/1999/xlink" xml:space="preserve" xmlns:serif="http://www.serif.com/" style="fill-rule:evenodd;clip-rule:evenodd;stroke-linejoin:round;stroke-miterlimit:2;">
    <rect id="Artboard1" x="0" y="0" width="150" height="150" style="fill:none;"/>
    <clipPath id="_clip1">
        <rect id="Artboard11" serif:id="Artboard1" x="0" y="0" width="150" height="150"/>
    </clipPath>
    <g clip-path="url(#_clip1)">
        <g transform="matrix(1.11213,0,0,1.11213,-8.40954,-8.40954)">
            <path d="M75,7.562C112.22,7.562 142.438,37.78 142.438,75C142.438,112.22 112.22,142.438 75,142.438C37.78,142.438 7.562,112.22 7.562,75C7.562,37.78 37.78,7.562 75,7.562ZM75,61.991C82.18,61.991 88.009,67.82 88.009,75C88.009,82.18 82.18,88.009 75,88.009C67.82,88.009 61.991,82.18 61.991,75C61.991,67.82 67.82,61.991 75,61.991Z" style="fill:rgb(251,129,32);fill-opacity:0.25;"/>
        </g>
    </g>
</svg>
